<svg width="60" height="60" viewBox="0 0 60 60" fill="none" xmlns="http://www.w3.org/2000/svg">
<g clip-path="url(#clip0_665_778)">
<path d="M32.5625 42.5H9.2675L24.175 27.5925L30 32.075L35.825 27.59L39.8325 31.5975C40.6331 31.1734 41.4739 30.8301 42.3425 30.5725L37.8225 26.0525L52.5 14.75V31.55C53.3885 31.9918 54.2267 32.5282 55 33.15V13.75C54.9974 12.7562 54.6014 11.804 53.8987 11.1013C53.196 10.3986 52.2438 10.0026 51.25 10H8.75C7.75625 10.0026 6.80395 10.3986 6.10126 11.1013C5.39857 11.804 5.00264 12.7562 5 13.75V41.25C5 42.2446 5.39509 43.1984 6.09835 43.9016C6.80161 44.6049 7.75544 45 8.75 45H32.5625C32.525 44.5875 32.5 44.1725 32.5 43.75C32.5 43.3275 32.525 42.9125 32.5625 42.5ZM7.5 40.7325V14.7525L22.1775 26.0525L7.5 40.7325ZM51.25 12.5C51.2725 12.5 51.29 12.5125 51.3125 12.5125L30 28.925L8.6875 12.5125C8.71 12.5125 8.7275 12.5 8.75 12.5H51.25ZM46.25 32.5C43.2673 32.5033 40.4078 33.6896 38.2987 35.7987C36.1896 37.9078 35.0033 40.7673 35 43.75C35.0178 44.1687 35.0596 44.5861 35.125 45C35.4261 47.7428 36.7269 50.2786 38.779 52.1232C40.8311 53.9678 43.4907 54.9919 46.25 55H47.5V52.5H46.25C44.1513 52.4941 42.1248 51.733 40.5411 50.3559C38.9574 48.9788 37.9222 47.0776 37.625 45C37.553 44.5869 37.5113 44.1691 37.5 43.75C37.4989 42.0272 38.0066 40.3425 38.9595 38.9073C39.9123 37.472 41.2679 36.3502 42.856 35.6826C44.4442 35.0149 46.1941 34.8313 47.8863 35.1546C49.5784 35.4779 51.1374 36.2939 52.3675 37.5H50V38.7825C48.9243 37.9556 47.6068 37.505 46.25 37.5C45.2255 37.4971 44.2161 37.7461 43.3105 38.225C42.4048 38.7039 41.6308 39.3981 41.0565 40.2465C40.4823 41.0949 40.1253 42.0714 40.0172 43.0901C39.909 44.1089 40.0529 45.1386 40.4363 46.0886C40.8196 47.0386 41.4306 47.8799 42.2155 48.5383C43.0004 49.1967 43.935 49.6521 44.9373 49.8643C45.9395 50.0766 46.9786 50.0393 47.963 49.7556C48.9474 49.4719 49.8469 48.9506 50.5825 48.2375C51.0131 48.9276 51.6568 49.4585 52.4162 49.7501C53.1755 50.0416 54.0092 50.0778 54.791 49.8532C55.5727 49.6285 56.26 49.1554 56.7488 48.5052C57.2377 47.8551 57.5013 47.0634 57.5 46.25V43.75C57.4643 40.7774 56.2676 37.9366 54.1655 35.8345C52.0634 33.7324 49.2226 32.5357 46.25 32.5ZM46.25 47.5C45.477 47.4975 44.7237 47.2559 44.0935 46.8083C43.4633 46.3607 42.987 45.729 42.73 45C42.582 44.5997 42.5041 44.1768 42.5 43.75C42.5 42.7554 42.8951 41.8016 43.5984 41.0984C44.3016 40.3951 45.2554 40 46.25 40C47.2446 40 48.1984 40.3951 48.9016 41.0984C49.6049 41.8016 50 42.7554 50 43.75C49.9959 44.1768 49.918 44.5997 49.77 45C49.513 45.729 49.0367 46.3607 48.4065 46.8083C47.7763 47.2559 47.023 47.4975 46.25 47.5ZM55 46.25C55 46.5815 54.8683 46.8995 54.6339 47.1339C54.3995 47.3683 54.0815 47.5 53.75 47.5C53.4185 47.5 53.1005 47.3683 52.8661 47.1339C52.6317 46.8995 52.5 46.5815 52.5 46.25V37.6325C54.0707 39.2862 54.963 41.4695 55 43.75V46.25Z" fill="black"/>
</g>
<defs>
<clipPath id="clip0_665_778">
<rect width="60" height="60" fill="white"/>
</clipPath>
</defs>
</svg>
