<svg width="48" height="48" viewBox="0 0 48 48" fill="none" xmlns="http://www.w3.org/2000/svg">
<path d="M43.766 3.6875H22.4379C22.349 2.8297 21.9451 2.03536 21.3043 1.45812C20.6636 0.880883 19.8316 0.561769 18.9692 0.562501H10.3285C9.39612 0.562501 8.50191 0.932896 7.8426 1.5922C7.1833 2.25151 6.8129 3.14572 6.8129 4.07813V7.20313L3.21915 8.0625C2.45255 8.24998 1.77229 8.69214 1.28974 9.31662C0.80719 9.9411 0.550927 10.7109 0.562901 11.5V36.5C0.550927 37.2891 0.80719 38.0589 1.28974 38.6834C1.77229 39.3079 2.45255 39.75 3.21915 39.9375L6.8129 40.8438V43.9688C6.82523 44.893 7.20106 45.7752 7.85903 46.4244C8.51701 47.0736 9.40419 47.4376 10.3285 47.4375H18.9223C19.7927 47.4499 20.6363 47.1361 21.287 46.5577C21.9376 45.9794 22.3482 45.1784 22.4379 44.3125H43.766C44.2482 44.3125 44.7257 44.2175 45.1712 44.033C45.6167 43.8485 46.0215 43.578 46.3624 43.237C46.7034 42.8961 46.9739 42.4913 47.1584 42.0458C47.3429 41.6003 47.4379 41.1228 47.4379 40.6406V7.35938C47.4379 6.87718 47.3429 6.3997 47.1584 5.95421C46.9739 5.50872 46.7034 5.10393 46.3624 4.76297C46.0215 4.422 45.6167 4.15154 45.1712 3.96701C44.7257 3.78248 44.2482 3.6875 43.766 3.6875ZM3.96915 36.9062C3.87922 36.8873 3.79995 36.8347 3.74763 36.7591C3.69532 36.6836 3.67395 36.5908 3.6879 36.5V11.5C3.68592 11.4168 3.71287 11.3355 3.76416 11.2699C3.81546 11.2044 3.88791 11.1587 3.96915 11.1406L6.8129 10.375V37.625L3.96915 36.9062ZM19.3129 43.9219C19.3129 44.0255 19.2717 44.1248 19.1985 44.1981C19.1252 44.2713 19.0259 44.3125 18.9223 44.3125H10.3285C10.2249 44.3125 10.1256 44.2713 10.0523 44.1981C9.97906 44.1248 9.9379 44.0255 9.9379 43.9219V4.07813C9.9379 3.97453 9.97906 3.87517 10.0523 3.80191C10.1256 3.72866 10.2249 3.6875 10.3285 3.6875H18.9223C19.0259 3.6875 19.1252 3.72866 19.1985 3.80191C19.2717 3.87517 19.3129 3.97453 19.3129 4.07813V43.9219ZM44.3129 40.6406C44.3129 40.7857 44.2553 40.9248 44.1527 41.0273C44.0502 41.1299 43.9111 41.1875 43.766 41.1875H22.4379V6.8125H43.766C43.9111 6.8125 44.0502 6.87012 44.1527 6.97268C44.2553 7.07524 44.3129 7.21434 44.3129 7.35938V40.6406Z" fill="black"/>
<path d="M39.625 13.0625H27.125C26.7106 13.0625 26.3132 13.2271 26.0201 13.5201C25.7271 13.8132 25.5625 14.2106 25.5625 14.625C25.5625 15.0394 25.7271 15.4368 26.0201 15.7299C26.3132 16.0229 26.7106 16.1875 27.125 16.1875H39.625C40.0394 16.1875 40.4368 16.0229 40.7299 15.7299C41.0229 15.4368 41.1875 15.0394 41.1875 14.625C41.1875 14.2106 41.0229 13.8132 40.7299 13.5201C40.4368 13.2271 40.0394 13.0625 39.625 13.0625Z" fill="black"/>
<path d="M29.4688 20.875C29.0052 20.875 28.5521 21.0125 28.1666 21.27C27.7812 21.5275 27.4808 21.8936 27.3034 22.3218C27.126 22.7501 27.0796 23.2214 27.17 23.676C27.2605 24.1306 27.4837 24.5483 27.8115 24.876C28.1392 25.2038 28.5569 25.427 29.0115 25.5175C29.4662 25.6079 29.9374 25.5615 30.3657 25.3841C30.7939 25.2067 31.16 24.9063 31.4175 24.5209C31.675 24.1354 31.8125 23.6823 31.8125 23.2188C31.8125 22.5971 31.5656 22.001 31.126 21.5615C30.6865 21.1219 30.0904 20.875 29.4688 20.875ZM29.4688 24C29.3142 24 29.1632 23.9542 29.0347 23.8683C28.9062 23.7825 28.8061 23.6605 28.747 23.5177C28.6878 23.375 28.6724 23.2179 28.7025 23.0663C28.7327 22.9148 28.8071 22.7756 28.9163 22.6663C29.0256 22.5571 29.1648 22.4827 29.3163 22.4525C29.4679 22.4224 29.625 22.4378 29.7677 22.497C29.9105 22.5561 30.0325 22.6562 30.1183 22.7847C30.2042 22.9132 30.25 23.0642 30.25 23.2188C30.25 23.426 30.1677 23.6247 30.0212 23.7712C29.8747 23.9177 29.676 24 29.4688 24Z" fill="black"/>
<path d="M37.2813 20.875C36.8177 20.875 36.3646 21.0125 35.9791 21.27C35.5937 21.5275 35.2933 21.8936 35.1159 22.3218C34.9385 22.7501 34.8921 23.2214 34.9825 23.676C35.073 24.1306 35.2962 24.5483 35.624 24.876C35.9517 25.2038 36.3694 25.427 36.824 25.5175C37.2787 25.6079 37.7499 25.5615 38.1782 25.3841C38.6064 25.2067 38.9725 24.9063 39.23 24.5209C39.4875 24.1354 39.625 23.6823 39.625 23.2188C39.625 22.5971 39.3781 22.001 38.9385 21.5615C38.499 21.1219 37.9029 20.875 37.2813 20.875ZM37.2813 24C37.1267 24 36.9757 23.9542 36.8472 23.8683C36.7187 23.7825 36.6186 23.6605 36.5595 23.5177C36.5003 23.375 36.4849 23.2179 36.515 23.0663C36.5452 22.9148 36.6196 22.7756 36.7288 22.6663C36.8381 22.5571 36.9773 22.4827 37.1288 22.4525C37.2804 22.4224 37.4375 22.4378 37.5802 22.497C37.723 22.5561 37.845 22.6562 37.9308 22.7847C38.0167 22.9132 38.0625 23.0642 38.0625 23.2188C38.0625 23.426 37.9802 23.6247 37.8337 23.7712C37.6872 23.9177 37.4885 24 37.2813 24Z" fill="black"/>
<path d="M29.4688 28.6875C29.0052 28.6875 28.5521 28.825 28.1666 29.0825C27.7812 29.34 27.4808 29.7061 27.3034 30.1343C27.126 30.5626 27.0796 31.0338 27.17 31.4885C27.2605 31.9431 27.4837 32.3608 27.8115 32.6885C28.1392 33.0163 28.5569 33.2395 29.0115 33.33C29.4662 33.4204 29.9374 33.374 30.3657 33.1966C30.7939 33.0192 31.16 32.7188 31.4175 32.3334C31.675 31.9479 31.8125 31.4948 31.8125 31.0313C31.8125 30.4096 31.5656 29.8135 31.126 29.374C30.6865 28.9344 30.0904 28.6875 29.4688 28.6875ZM29.4688 31.8125C29.3142 31.8125 29.1632 31.7667 29.0347 31.6808C28.9062 31.595 28.8061 31.473 28.747 31.3302C28.6878 31.1875 28.6724 31.0304 28.7025 30.8788C28.7327 30.7273 28.8071 30.5881 28.9163 30.4788C29.0256 30.3696 29.1648 30.2952 29.3163 30.265C29.4679 30.2349 29.625 30.2503 29.7677 30.3095C29.9105 30.3686 30.0325 30.4687 30.1183 30.5972C30.2042 30.7257 30.25 30.8767 30.25 31.0313C30.25 31.2385 30.1677 31.4372 30.0212 31.5837C29.8747 31.7302 29.676 31.8125 29.4688 31.8125Z" fill="black"/>
<path d="M37.2813 28.6875C36.8177 28.6875 36.3646 28.825 35.9791 29.0825C35.5937 29.34 35.2933 29.7061 35.1159 30.1343C34.9385 30.5626 34.8921 31.0338 34.9825 31.4885C35.073 31.9431 35.2962 32.3608 35.624 32.6885C35.9517 33.0163 36.3694 33.2395 36.824 33.33C37.2787 33.4204 37.7499 33.374 38.1782 33.1966C38.6064 33.0192 38.9725 32.7188 39.23 32.3334C39.4875 31.9479 39.625 31.4948 39.625 31.0313C39.625 30.4096 39.3781 29.8135 38.9385 29.374C38.499 28.9344 37.9029 28.6875 37.2813 28.6875ZM37.2813 31.8125C37.1267 31.8125 36.9757 31.7667 36.8472 31.6808C36.7187 31.595 36.6186 31.473 36.5595 31.3302C36.5003 31.1875 36.4849 31.0304 36.515 30.8788C36.5452 30.7273 36.6196 30.5881 36.7288 30.4788C36.8381 30.3696 36.9773 30.2952 37.1288 30.265C37.2804 30.2349 37.4375 30.2503 37.5802 30.3095C37.723 30.3686 37.845 30.4687 37.9308 30.5972C38.0167 30.7257 38.0625 30.8767 38.0625 31.0313C38.0625 31.2385 37.9802 31.4372 37.8337 31.5837C37.6872 31.7302 37.4885 31.8125 37.2813 31.8125Z" fill="black"/>
</svg>
