<svg width="14" height="15" viewBox="0 0 14 15" fill="none" xmlns="http://www.w3.org/2000/svg">
<path d="M12.3852 14.5H12.2936C1.71681 13.8916 0.215049 4.96385 0.00512688 2.23924C-0.0117879 2.02739 0.0132481 1.81429 0.0788017 1.61215C0.144355 1.41 0.249136 1.22278 0.38714 1.06121C0.525144 0.899647 0.693662 0.76691 0.883041 0.670606C1.07241 0.574303 1.27892 0.516327 1.49073 0.500001H4.45656C4.67216 0.499792 4.88286 0.564352 5.06137 0.685319C5.23987 0.806286 5.37795 0.978085 5.45773 1.17846L6.27589 3.19231C6.35467 3.38807 6.37422 3.60266 6.33213 3.80944C6.29 4.01621 6.1881 4.20606 6.03905 4.35539L4.89255 5.51309C5.07164 6.53118 5.55902 7.46965 6.28875 8.20157C7.0185 8.93356 7.95532 9.42357 8.97255 9.6054L10.1406 8.44767C10.2921 8.30025 10.4837 8.20071 10.6914 8.16145C10.8991 8.1222 11.1138 8.14494 11.3086 8.22691L13.3379 9.04C13.5352 9.12236 13.7035 9.26156 13.8214 9.43988C13.9393 9.61827 14.0015 9.82769 14 10.0416V12.8846C14 13.3131 13.8298 13.7239 13.527 14.0269C13.2242 14.3298 12.8134 14.5 12.3852 14.5ZM1.61991 1.57693C1.47716 1.57693 1.34025 1.63366 1.23931 1.73464C1.13836 1.83562 1.08165 1.97258 1.08165 2.11539V2.15846C1.32925 5.34616 2.91713 12.8846 12.3528 13.4231C12.4236 13.4275 12.4944 13.4178 12.5615 13.3947C12.6284 13.3716 12.6902 13.3356 12.7432 13.2886C12.7962 13.2415 12.8394 13.1845 12.8704 13.1207C12.9013 13.0569 12.9193 12.9877 12.9234 12.9169V10.0416L10.8942 9.22847L9.34935 10.7631L9.09101 10.7308C4.40811 10.1439 3.77296 5.45924 3.77296 5.41078L3.74067 5.15231L5.26934 3.60693L4.46194 1.57693H1.61991Z" fill="white"/>
</svg>
