<svg width="28" height="24" viewBox="0 0 28 24" fill="none" xmlns="http://www.w3.org/2000/svg">
<path opacity="0.5" d="M0.58 22.4C2.98 20.78 4.78 19.01 5.98 17.09C7.18 15.11 7.78 12.83 7.78 10.25L5.08 11.15C3.7 11.15 2.53 10.67 1.57 9.71C0.61 8.75 0.13 7.58 0.13 6.2C0.13 4.64 0.64 3.35 1.66 2.33C2.68 1.31 3.97 0.799999 5.53 0.799999C7.33 0.799999 8.74 1.37 9.76 2.51C10.84 3.59 11.38 5.12 11.38 7.1C11.38 14.48 8.08 20.03 1.48 23.75L0.58 22.4ZM16.78 22.4C19.18 20.78 20.98 19.01 22.18 17.09C23.38 15.11 23.98 12.83 23.98 10.25L21.28 11.15C19.9 11.15 18.73 10.67 17.77 9.71C16.81 8.75 16.33 7.58 16.33 6.2C16.33 4.64 16.84 3.35 17.86 2.33C18.88 1.31 20.17 0.799999 21.73 0.799999C23.53 0.799999 24.94 1.37 25.96 2.51C27.04 3.59 27.58 5.12 27.58 7.1C27.58 14.48 24.28 20.03 17.68 23.75L16.78 22.4Z" fill="#D1AC66"/>
</svg>
