<svg width="16" height="11" viewBox="0 0 16 11" fill="none" xmlns="http://www.w3.org/2000/svg">
<path d="M10.6149 0.485041C10.5687 0.427794 10.5109 0.38091 10.4454 0.347435C10.3799 0.31396 10.3081 0.294643 10.2346 0.290739C10.1611 0.286835 10.0876 0.298431 10.0189 0.324774C9.95024 0.351117 9.88786 0.391617 9.83583 0.443644C9.7838 0.495671 9.7433 0.558061 9.71696 0.626761C9.69061 0.695461 9.67902 0.768934 9.68292 0.842408C9.68683 0.915882 9.70614 0.987713 9.73962 1.05323C9.77309 1.11876 9.81998 1.1765 9.87723 1.22272L13.6476 4.99801H1.18243C1.04742 5.00454 0.920114 5.06277 0.826881 5.16062C0.733647 5.25847 0.681641 5.38845 0.681641 5.52361C0.681641 5.65877 0.733647 5.78874 0.826881 5.8866C0.920114 5.98445 1.04742 6.04267 1.18243 6.04921H13.6468L9.86985 9.81958C9.77523 9.91907 9.72247 10.0511 9.72247 10.1884C9.72247 10.3257 9.77523 10.4578 9.86985 10.5573C9.96768 10.6551 10.1004 10.71 10.2387 10.71C10.377 10.71 10.5097 10.6551 10.6075 10.5573L15.2795 5.88528C15.329 5.83743 15.3683 5.78012 15.3952 5.71675C15.4221 5.65339 15.4359 5.58526 15.4359 5.51644C15.4359 5.44761 15.4221 5.37949 15.3952 5.31612C15.3683 5.25275 15.329 5.19544 15.2795 5.1476L10.6149 0.485041Z" fill="#621B02"/>
</svg>
